<?xml version="1.0" encoding="iso-8859-1"?>
<svg xmlns="http://www.w3.org/2000/svg" xmlns:xlink="http://www.w3.org/1999/xlink" version="1.1" viewBox="0 0 19.984 19.984" enable-background="new 0 0 19.984 19.984" width="512px" height="512px">
  <g>
    <path d="m19.4,3.097l-.027-.06c-0.383-0.844-1.031-1.529-1.856-1.914-4.441-2.07-9.882-1.282-13.548,2.383-2.957,2.957-4.041,7.069-3.263,10.88 0.548,2.683 2.671,4.807 5.354,5.354 3.811,0.777 7.923-0.307 10.88-3.263 0.242-0.242 0.471-0.492 0.687-0.749 0.849-1.008 0.43-2.552-0.78-3.076-0.735-0.318-1.392-0.87-1.864-1.661-0.738-1.239-0.72-2.842 0.041-4.067 0.746-1.201 1.931-1.835 3.148-1.914 0.98-0.063 1.633-1.019 1.228-1.913zm-13.946,13.395c-0.828,0-1.5-0.672-1.5-1.5s0.672-1.5 1.5-1.5 1.5,0.672 1.5,1.5-0.671,1.5-1.5,1.5zm0-4.5c-1.105,0-2-0.895-2-2 0-1.105 0.895-2 2-2s2,0.895 2,2c0,1.105-0.895,2-2,2zm3.5,6.5c-0.552,0-1-0.448-1-1 0-0.552 0.448-1 1-1s1,0.448 1,1c0,0.552-0.447,1-1,1zm.5-10.5c-1.381-8.88178e-16-2.5-1.119-2.5-2.5 0-1.381 1.119-2.5 2.5-2.5s2.5,1.119 2.5,2.5c0,1.381-1.119,2.5-2.5,2.5z" fill="#555555"/>
  </g>
</svg>
